<?xml version="1.0" encoding="UTF-8" standalone="no"?>
<!-- Created with Inkscape (http://www.inkscape.org/) -->

<svg
   width="480"
   height="480"
   viewBox="0 0 127 127"
   version="1.1"
   id="svg5"
   xml:space="preserve"
   inkscape:version="1.2.1 (9c6d41e410, 2022-07-14)"
   sodipodi:docname="Fallback.svg"
   xmlns:inkscape="http://www.inkscape.org/namespaces/inkscape"
   xmlns:sodipodi="http://sodipodi.sourceforge.net/DTD/sodipodi-0.dtd"
   xmlns="http://www.w3.org/2000/svg"
   xmlns:svg="http://www.w3.org/2000/svg"><sodipodi:namedview
     id="namedview7"
     pagecolor="#ffffff"
     bordercolor="#000000"
     borderopacity="0.25"
     inkscape:showpageshadow="2"
     inkscape:pageopacity="0.0"
     inkscape:pagecheckerboard="0"
     inkscape:deskcolor="#d1d1d1"
     inkscape:document-units="mm"
     showgrid="false"
     inkscape:zoom="1.5"
     inkscape:cx="219.33333"
     inkscape:cy="211.66667"
     inkscape:window-width="1920"
     inkscape:window-height="991"
     inkscape:window-x="-9"
     inkscape:window-y="-9"
     inkscape:window-maximized="1"
     inkscape:current-layer="layer1" /><defs
     id="defs2"><rect
       x="78.5"
       y="190"
       width="203"
       height="105.5"
       id="rect1269" /><rect
       x="154"
       y="144.5"
       width="203"
       height="145.5"
       id="rect1172" /></defs><g
     inkscape:label="Ebene 1"
     inkscape:groupmode="layer"
     id="layer1"><path
       style="fill:#000000;fill-opacity:1;stroke:none;stroke-width:0.499999;stroke-linecap:round;stroke-dasharray:none;stroke-opacity:1;paint-order:markers stroke fill"
       d="m 86,15.013194 c 2.357023,0 5,2.069281 5,5 v 86.973616 c 0,2.97159 -2.642977,5 -5,5 -2.357023,0 -5,-2.11731 -5,-5 V 20.013194 c 0,-2.92906 2.642977,-5 5,-5 z"
       id="path1301"
       sodipodi:nodetypes="zzszssz" /><path
       style="fill:#000000;fill-opacity:1;stroke:none;stroke-width:0.499999;stroke-linecap:round;stroke-dasharray:none;stroke-opacity:1;paint-order:markers stroke fill"
       d="m 41,15.013196 c 2.357023,0 5,2.069281 5,5 V 106.9868 c 0,2.97159 -2.642977,5 -5,5 -2.357023,0 -5,-2.11731 -5,-5 V 20.013196 c 0,-2.92906 2.642977,-5 5,-5 z"
       id="path1301-6"
       sodipodi:nodetypes="zzszssz" /></g></svg>
