<?xml version="1.0" encoding="UTF-8" standalone="no"?>
<!-- Created with Inkscape (http://www.inkscape.org/) -->

<svg
   width="480"
   height="480"
   viewBox="0 0 127 127"
   version="1.1"
   id="svg5"
   xml:space="preserve"
   inkscape:version="1.2.1 (9c6d41e410, 2022-07-14)"
   sodipodi:docname="MemoryFallback.svg"
   xmlns:inkscape="http://www.inkscape.org/namespaces/inkscape"
   xmlns:sodipodi="http://sodipodi.sourceforge.net/DTD/sodipodi-0.dtd"
   xmlns="http://www.w3.org/2000/svg"
   xmlns:svg="http://www.w3.org/2000/svg"><sodipodi:namedview
     id="namedview7"
     pagecolor="#ffffff"
     bordercolor="#000000"
     borderopacity="0.25"
     inkscape:showpageshadow="2"
     inkscape:pageopacity="0.0"
     inkscape:pagecheckerboard="0"
     inkscape:deskcolor="#d1d1d1"
     inkscape:document-units="mm"
     showgrid="false"
     inkscape:zoom="1.5"
     inkscape:cx="179"
     inkscape:cy="266.33333"
     inkscape:window-width="1920"
     inkscape:window-height="991"
     inkscape:window-x="-9"
     inkscape:window-y="-9"
     inkscape:window-maximized="1"
     inkscape:current-layer="layer1" /><defs
     id="defs2"><rect
       x="198"
       y="42.666667"
       width="102.66667"
       height="100.66667"
       id="rect1380" /><rect
       x="78.5"
       y="190"
       width="203"
       height="105.5"
       id="rect1269" /><rect
       x="154"
       y="144.5"
       width="203"
       height="145.5"
       id="rect1172" /></defs><g
     inkscape:label="Ebene 1"
     inkscape:groupmode="layer"
     id="layer1"><path
       style="fill:#000000;fill-opacity:1;stroke:none;stroke-width:0.439716;stroke-linecap:round;stroke-dasharray:none;stroke-opacity:1;paint-order:markers stroke fill"
       d="m 86,48 c 2.357023,0 5,1.600394 5,3.86703 v 67.26593 C 91,121.43121 88.357023,123 86,123 c -2.357023,0 -5,-1.63754 -5,-3.86704 V 51.86703 C 81,49.601677 83.642977,48 86,48 Z"
       id="path1301"
       sodipodi:nodetypes="zzszssz" /><path
       style="fill:#000000;fill-opacity:1;stroke:none;stroke-width:0.439716;stroke-linecap:round;stroke-dasharray:none;stroke-opacity:1;paint-order:markers stroke fill"
       d="m 41,48 c 2.357023,0 5,1.6 5,3.867 v 67.266 c 0,2.298 -2.642977,3.867 -5,3.867 -2.357023,0 -5,-1.638 -5,-3.867 V 51.867 C 36,49.602 38.642977,48 41,48 Z"
       id="path1301-6"
       sodipodi:nodetypes="zzszssz" /><text
       xml:space="preserve"
       transform="matrix(0.67723465,0,0,0.67723465,-91.900671,-35.189078)"
       id="text1378"
       style="font-size:74.6667px;font-family:sans-serif;white-space:pre;shape-inside:url(#rect1380);display:inline;fill:#000000;fill-opacity:1;stroke:none;stroke-width:1.88976;stroke-linecap:round;stroke-dasharray:none;stroke-opacity:1;paint-order:markers stroke fill"><tspan
         x="198"
         y="110.78671"
         id="tspan332">M</tspan></text></g></svg>
